# xmcd
#
# Track frame offsets: 
#        150
#        14930
#        33617
#        49047
#        64865
#        73555
#        84700
#        99937
#        118185
#        130055
#        147460
#        163680
#        181252
#        194102
#        214712
#        234652
#
# Disc length: 3299 seconds
#
# Revision: 0
# Processed by: cddbd v1.5.2PL0 Copyright (c) Steve Scherf et al.
# Submitted via: ExactAudioCopy v1.0b3
#
DISCID=f40ce110
DTITLE=Rolando Boldrin - Globo Rural
DYEAR=2006
DGENRE=Caipira
TTITLE0=Cabocla Tereza
TTITLE1=Chapéu De Páia
TTITLE2=Coração De Violeiro
TTITLE3=Folhas Secas
TTITLE4=Felicidade
TTITLE5=Flor Do Cafezal
TTITLE6=Fogão De Lenha
TTITLE7=Vide, Vida Marvada
TTITLE8=Lenço Preto
TTITLE9=Memória De Carreiro
TTITLE10=Lá Vai Minha Garça Branca
TTITLE11=Minha Viola-Ária Na 4ª Corda-Paulinho Nogueira
TTITLE12=Paulistinha
TTITLE13=Vaca Estrela E Boi Fubá
TTITLE14=Romance De Uma Caveira
TTITLE15=Avoa, Jacutinga
EXTD=
EXTT0=
EXTT1=
EXTT2=
EXTT3=
EXTT4=
EXTT5=
EXTT6=
EXTT7=
EXTT8=
EXTT9=
EXTT10=
EXTT11=
EXTT12=
EXTT13=
EXTT14=
EXTT15=
PLAYORDER=
